<svg xmlns="http://www.w3.org/2000/svg" xmlns:xlink="http://www.w3.org/1999/xlink" width="800" zoomAndPan="magnify" viewBox="0 0 600 599.999999" height="800" preserveAspectRatio="xMidYMid meet" version="1.0"><defs><clipPath id="cb02052247"><path d="M 180 180 L 420 180 L 420 420 L 180 420 Z M 180 180 " clip-rule="nonzero"/></clipPath><clipPath id="8e411bd0c9"><path d="M 210 210 L 390 210 L 390 390 L 210 390 Z M 210 210 " clip-rule="nonzero"/></clipPath><clipPath id="dfa89f789a"><path d="M 300 210 C 250.292969 210 210 250.292969 210 300 C 210 349.707031 250.292969 390 300 390 C 349.707031 390 390 349.707031 390 300 C 390 250.292969 349.707031 210 300 210 Z M 300 210 " clip-rule="nonzero"/></clipPath><clipPath id="9b50294db5"><path d="M 0 0 L 180 0 L 180 180 L 0 180 Z M 0 0 " clip-rule="nonzero"/></clipPath><clipPath id="4956a21c79"><path d="M 90 0 C 40.292969 0 0 40.292969 0 90 C 0 139.707031 40.292969 180 90 180 C 139.707031 180 180 139.707031 180 90 C 180 40.292969 139.707031 0 90 0 Z M 90 0 " clip-rule="nonzero"/></clipPath><clipPath id="684962196e"><rect x="0" width="180" y="0" height="180"/></clipPath></defs><g clip-path="url(#cb02052247)"><path fill="#3d4270" d="M 257.066406 412.03125 C 242.117188 406.3125 228.484375 397.738281 216.828125 386.523438 C 205.175781 375.308594 196.050781 362.117188 189.675781 347.382812 C 183.519531 333.09375 180.328125 318.03125 180 302.417969 C 179.671875 286.808594 182.308594 271.636719 187.914062 257.125 C 193.632812 242.171875 202.207031 228.539062 213.421875 216.886719 C 224.636719 205.230469 237.828125 196.105469 252.5625 189.730469 C 266.851562 183.574219 281.914062 180.386719 297.527344 180.054688 C 313.136719 179.726562 328.308594 182.363281 342.820312 187.972656 C 357.773438 193.6875 371.40625 202.261719 383.058594 213.476562 C 394.714844 224.691406 403.839844 237.882812 410.214844 252.617188 C 416.371094 266.90625 419.558594 281.96875 419.890625 297.582031 C 420.21875 313.191406 417.582031 328.363281 411.972656 342.875 C 406.257812 357.828125 397.683594 371.460938 386.46875 383.113281 C 375.253906 394.769531 362.0625 403.894531 347.328125 410.269531 C 333.035156 416.425781 317.976562 419.613281 302.363281 419.945312 C 301.484375 419.945312 300.714844 419.945312 299.835938 419.945312 C 285.101562 419.945312 270.699219 417.304688 257.066406 412.03125 Z M 297.746094 193.359375 C 269.273438 193.90625 242.667969 205.5625 222.988281 226.121094 C 203.308594 246.679688 192.753906 273.722656 193.304688 302.199219 C 193.851562 330.671875 205.507812 357.277344 226.066406 376.957031 C 246.074219 396.199219 272.238281 406.640625 299.945312 406.640625 C 300.714844 406.640625 301.375 406.640625 302.144531 406.640625 C 330.617188 406.09375 357.222656 394.4375 376.902344 373.878906 C 396.582031 353.320312 407.136719 326.277344 406.585938 297.800781 C 406.039062 269.328125 394.382812 242.722656 373.824219 223.042969 C 353.816406 203.800781 327.648438 193.359375 299.945312 193.359375 C 272.238281 193.359375 298.515625 193.359375 297.746094 193.359375 Z M 297.746094 193.359375 " fill-opacity="1" fill-rule="nonzero"/></g><g clip-path="url(#8e411bd0c9)"><g clip-path="url(#dfa89f789a)"><g transform="matrix(1, 0, 0, 1, 210, 210)"><g clip-path="url(#684962196e)"><g clip-path="url(#9b50294db5)"><g clip-path="url(#4956a21c79)"><rect x="-342" width="864" fill="#3d4270" height="863.999999" y="-342" fill-opacity="1"/></g></g></g></g></g></g></svg>